<!--?xml version="1.0" encoding="utf-8"?-->
<!-- Generator: Adobe Illustrator 18.1.1, SVG Export Plug-In . SVG Version: 6.00 Build 0)  -->

<svg version="1.1" id="_x31_0" xmlns="http://www.w3.org/2000/svg" xmlns:xlink="http://www.w3.org/1999/xlink" x="0px" y="0px" viewBox="0 0 512 512" style="width: 48px; height: 48px; opacity: 1;" xml:space="preserve">
<style type="text/css">
	.st0{fill:#374149;}
</style>
<g>
	<path class="st0" d="M477.77,458.488L477.77,458.488v-0.16h-30.844V315.035c16.215-6.766,27.118-20.684,27.118-37.121v-66.477
		l-2.126-4.527L430.086,118c-3.305-7.019-10.363-11.5-18.121-11.5h-311.93c-7.758,0-14.817,4.481-18.122,11.5l-41.828,88.91
		l-2.125,4.527v66.477c0,16.437,10.898,30.355,27.114,37.121v142.582v0.711H34.23v41.914c0,6.496,5.266,11.758,11.758,11.758
		h420.024c6.492,0,11.758-5.262,11.758-11.758v-41.626V458.488z M144.183,319.621c10.398,0,20.016-2.461,27.958-6.82
		c7.938,4.359,17.554,6.82,27.953,6.82c10.398,0,20.016-2.461,27.954-6.82c7.937,4.359,17.554,6.82,27.953,6.82
		c10.398,0,20.015-2.461,27.953-6.82c7.942,4.359,17.555,6.82,27.954,6.82c10.402,0,20.015-2.461,27.957-6.82
		c7.938,4.359,17.554,6.82,27.953,6.82c10.398,0,20.016-2.461,27.954-6.82c2.011,1.117,4.195,2.125,6.43,2.961v139.66H109.801
		v-139.66c2.238-0.836,4.418-1.844,6.43-2.961C124.168,317.16,133.785,319.621,144.183,319.621z M283.953,261.645v16.27
		c0,2.125-0.5,4.191-1.394,6.094c-0.058,0.054-0.113,0.113-0.113,0.222c-0.282,0.558-0.618,1.118-0.95,1.621
		c-0.336,0.559-0.785,1.122-1.23,1.68c-0.336,0.39-0.726,0.836-1.062,1.172c-0.45,0.504-1.008,1.008-1.566,1.453
		c-0.336,0.282-0.672,0.559-1.004,0.84c-0.786,0.558-1.566,1.062-2.406,1.566c-0.558,0.336-1.062,0.614-1.621,0.894
		c-0.504,0.278-1.008,0.5-1.512,0.726c-1.285,0.559-2.57,1.063-3.969,1.454c-0.39,0.11-0.836,0.281-1.226,0.336
		c-0.504,0.168-1.062,0.278-1.566,0.39c-0.726,0.168-1.453,0.282-2.184,0.39c-2.011,0.336-4.023,0.504-6.148,0.504
		s-4.137-0.168-6.149-0.504c-0.726-0.109-1.453-0.222-2.179-0.39c-0.504-0.113-1.062-0.222-1.566-0.39
		c-0.391-0.055-0.84-0.226-1.23-0.336c-1.398-0.39-2.684-0.894-3.969-1.454c-0.504-0.226-1.008-0.449-1.512-0.726
		c-0.558-0.281-1.062-0.558-1.621-0.894c-0.836-0.504-1.622-1.008-2.402-1.566c-0.336-0.281-0.672-0.558-1.008-0.84
		c-0.558-0.445-1.117-0.949-1.566-1.453c-0.332-0.336-0.726-0.782-1.062-1.172c-0.446-0.558-0.89-1.121-1.226-1.68
		c-0.336-0.503-0.672-1.062-0.954-1.621c0-0.11-0.054-0.168-0.109-0.222c-0.895-1.902-1.398-3.969-1.398-6.094v-16.27v-45.172
		l5.87-87.61h44.168l5.867,87.61V261.645z M395.77,261.645v16.27c0,0.671-0.055,1.339-0.168,1.957
		c-0.054,0.613-0.222,1.285-0.39,1.898c-0.168,0.504-0.336,1.008-0.559,1.512c-0.054,0.222-0.168,0.503-0.277,0.726
		c-1.23,2.515-3.133,4.809-5.649,6.766c-0.84,0.613-1.734,1.23-2.683,1.789c-0.696,0.41-1.462,0.762-2.211,1.129
		c-0.824,0.398-1.672,0.762-2.543,1.098c-1.633,0.629-3.351,1.145-5.156,1.539c-0.867,0.188-1.746,0.34-2.641,0.469
		c-0.934,0.133-1.859,0.286-2.824,0.348c-0.95,0.058-1.902,0.113-2.852,0.113c-0.949,0-1.902-0.054-2.851-0.113
		c-1.019-0.066-1.996-0.223-2.981-0.367c-0.812-0.122-1.609-0.258-2.398-0.43c-1.859-0.398-3.629-0.934-5.305-1.582
		c-0.835-0.324-1.648-0.672-2.441-1.054c-0.762-0.371-1.543-0.73-2.25-1.149c-0.949-0.558-1.843-1.176-2.683-1.789
		c-2.516-1.957-4.414-4.25-5.645-6.766c-0.114-0.223-0.226-0.504-0.281-0.726c-0.223-0.504-0.391-1.008-0.559-1.512
		c-0.168-0.614-0.336-1.286-0.39-1.898c-0.114-0.618-0.168-1.286-0.168-1.957v-16.27v-45.172l-17.668-87.61h44.168l29.406,87.61
		V261.645z M189.801,128.894l-17.66,87.578v45.172v16.27c0,0.671-0.059,1.339-0.168,1.957c-0.059,0.672-0.226,1.285-0.394,1.898
		c-0.168,0.504-0.336,1.008-0.559,1.512c-0.054,0.222-0.168,0.503-0.277,0.726c-0.114,0.168-0.227,0.39-0.282,0.558
		c-0.222,0.446-0.504,0.894-0.781,1.285c-1.286,1.958-3.078,3.801-5.199,5.367c-0.672,0.504-1.344,0.95-2.07,1.344
		c-0.559,0.336-1.063,0.614-1.622,0.894c-0.504,0.278-1.008,0.5-1.508,0.726c-1.289,0.559-2.574,1.063-3.972,1.454
		c-0.391,0.168-0.836,0.281-1.227,0.336c-1.23,0.336-2.461,0.613-3.746,0.781c-0.672,0.114-1.398,0.223-2.07,0.282
		c-1.344,0.168-2.684,0.222-4.082,0.222c-1.398,0-2.738-0.054-4.082-0.222c-0.668-0.058-1.394-0.168-2.066-0.282
		c-1.286-0.168-2.516-0.445-3.746-0.781c-0.39-0.055-0.84-0.226-1.23-0.336c-1.398-0.39-2.683-0.894-3.969-1.454
		c-0.504-0.226-1.008-0.449-1.511-0.726c-0.559-0.281-1.063-0.558-1.622-0.894c-0.726-0.394-1.394-0.84-2.066-1.344
		c-2.125-1.566-3.914-3.41-5.199-5.367c-0.281-0.39-0.558-0.839-0.785-1.285c-0.055-0.168-0.164-0.39-0.278-0.558
		c-0.114-0.223-0.222-0.504-0.282-0.726c-0.222-0.504-0.39-1.008-0.558-1.512c-0.168-0.614-0.336-1.226-0.39-1.898
		c-0.114-0.618-0.168-1.286-0.168-1.957v-16.27v-45.172l29.406-87.61h36.957L189.801,128.894z" style="fill: rgb(223, 86, 86);"></path>
	<path class="st0" d="M137.996,57.309c-3.121,0-6.082-0.41-8.879-1.238c-2.804-0.828-5.285-2.324-7.453-4.492l-8.594,8.598
		c3.309,3.374,6.988,5.714,11.027,7.019c4.047,1.309,8.649,1.957,13.805,1.957c3.566,0,6.89-0.465,9.98-1.382
		c3.086-0.922,5.766-2.258,8.024-4.012c2.262-1.754,4.023-3.898,5.301-6.449c1.274-2.543,1.91-5.477,1.91-8.786
		c0-3.054-0.414-5.797-1.242-8.21c-0.828-2.422-2.164-4.462-4.012-6.114c-1.465-1.469-3.215-2.614-5.254-3.442
		c-2.035-0.828-4.618-1.465-7.734-1.91l-8.118-1.242c-1.465-0.191-2.695-0.508-3.676-0.954c-0.992-0.445-1.835-0.988-2.534-1.625
		c-0.7-0.703-1.196-1.465-1.481-2.289c-0.286-0.828-0.426-1.688-0.426-2.582c0-2.355,0.84-4.374,2.527-6.066
		c1.687-1.687,4.313-2.531,7.882-2.531c2.227,0,4.582,0.274,7.066,0.813c2.481,0.539,4.774,1.832,6.875,3.867l8.125-8.031
		l0.168-0.164c0,0,0,0-0.004,0l0.118-0.114c-2.93-2.863-6.149-4.902-9.649-6.113C148.25,0.606,144.141,0,139.43,0
		c-3.691,0-7.008,0.516-9.934,1.531c-2.93,1.019-5.414,2.434-7.449,4.25c-2.035,1.812-3.598,3.98-4.68,6.492
		c-1.086,2.519-1.625,5.301-1.625,8.359c0,5.797,1.625,10.254,4.871,13.371c0.418,0.402,1.027,0.617,1.488,0.98
		c0.746,0.582,1.55,1.11,2.41,1.582c0.55,0.309,0.949,0.758,1.546,1.019c2.102,0.926,4.684,1.61,7.738,2.051l8.117,1.246
		c1.719,0.254,2.993,0.538,3.821,0.859c0.828,0.316,1.59,0.797,2.293,1.434c1.398,1.398,2.098,3.281,2.098,5.633
		c0,2.738-1.015,4.84-3.054,6.305C145.031,56.578,142.008,57.309,137.996,57.309z" style="fill: rgb(223, 86, 86);"></path>
	<polygon class="st0" points="188.328,68.078 188.328,68.418 188.328,68.418 188.328,68.582 201.606,68.582 201.606,12.43 
		201.606,12.418 219.375,12.418 219.375,0.574 170.562,0.574 170.562,12.418 188.328,12.418 	" style="fill: rgb(223, 86, 86);"></polygon>
	<path class="st0" d="M228.778,50.574c0.418,2.199,1.086,4.218,2.011,6.066c0.918,1.847,2.242,3.629,3.961,5.347
		c2.29,2.294,4.918,4.062,7.879,5.301c2.961,1.246,6.414,1.863,10.363,1.863c3.946,0,7.387-0.617,10.317-1.863
		c2.926-1.238,5.538-3.007,7.832-5.301c1.718-1.718,3.039-3.5,3.965-5.347c0.918-1.848,1.606-3.867,2.05-6.066
		c0.446-2.195,0.719-4.598,0.813-7.211c0.098-2.61,0.145-5.535,0.145-8.785c0-3.25-0.047-6.176-0.145-8.786
		c-0.094-2.613-0.367-5.015-0.813-7.214c-0.445-2.195-1.133-4.215-2.05-6.062c-0.926-1.848-2.246-3.63-3.965-5.348
		c-2.294-2.293-4.906-4.062-7.832-5.301C260.379,0.621,256.938,0,252.992,0c-3.949,0-7.402,0.621-10.363,1.867
		c-2.961,1.238-5.59,3.008-7.879,5.301c-1.718,1.718-3.042,3.5-3.961,5.348c-0.926,1.847-1.594,3.867-2.011,6.062
		c-0.41,2.199-0.668,4.602-0.762,7.214c-0.098,2.61-0.14,5.535-0.14,8.786c0,3.25,0.042,6.175,0.14,8.785
		C228.11,45.977,228.367,48.379,228.778,50.574z M248.074,12.848c1.43-0.668,3.07-1,4.918-1c1.844,0,3.485,0.332,4.918,1
		c1.434,0.671,2.629,1.542,3.582,2.629c0.637,0.699,1.16,1.48,1.578,2.34c0.414,0.859,0.746,1.988,1,3.39
		c0.258,1.402,0.445,3.172,0.574,5.301c0.125,2.133,0.191,4.82,0.191,8.07c0,3.25-0.066,5.938-0.191,8.074
		c-0.13,2.133-0.317,3.879-0.574,5.25c-0.254,1.371-0.586,2.481-1,3.34c-0.418,0.863-0.942,1.641-1.578,2.343
		c-0.953,1.082-2.148,1.977-3.582,2.676c-1.434,0.699-3.074,1.047-4.918,1.047c-1.847,0-3.488-0.348-4.918-1.047
		c-1.434-0.699-2.661-1.594-3.676-2.676c-0.637-0.702-1.168-1.48-1.578-2.343c-0.414-0.859-0.75-1.969-1.004-3.34
		c-0.254-1.371-0.43-3.118-0.523-5.25c-0.098-2.136-0.145-4.824-0.145-8.074c0-3.25,0.047-5.938,0.145-8.07
		c0.094-2.129,0.27-3.898,0.523-5.301c0.254-1.402,0.59-2.531,1.004-3.39c0.41-0.86,0.942-1.641,1.578-2.34
		C245.414,14.39,246.641,13.519,248.074,12.848z" style="fill: rgb(223, 86, 86);"></path>
	<path class="st0" d="M304.953,68.582v-27.13h9.547l13.281,27.13h15.375l-13.359-25.798l-1.805-3.538
		c1.645-0.57,3.215-1.375,4.703-2.426c1.496-1.05,2.82-2.32,3.965-3.82c1.145-1.492,2.051-3.199,2.722-5.106
		c0.672-1.914,1.004-4.078,1.004-6.5c0-2.863-0.496-5.55-1.48-8.066c-0.993-2.515-2.438-4.714-4.348-6.59
		c-1.91-1.879-4.234-3.375-6.973-4.492c-2.734-1.11-5.828-1.672-9.262-1.672h-26.648v68.008H304.953z M324.484,27.894
		c-1.754,1.656-4.094,2.485-7.023,2.485h-12.508V12.418h12.508c2.93,0,5.27,0.829,7.023,2.485c1.75,1.66,2.63,3.82,2.63,6.492
		C327.114,24.074,326.234,26.238,324.484,27.894z" style="fill: rgb(223, 86, 86);"></path>
	<polygon class="st0" points="354.137,68.418 354.137,68.582 398.934,68.582 398.934,56.738 367.414,56.738 367.414,40.215 
		394.254,40.215 394.254,28.371 367.414,28.371 367.414,12.418 398.934,12.418 398.934,0.574 354.137,0.574 354.137,68.215 
		354.137,68.418 	" style="fill: rgb(223, 86, 86);"></polygon>
</g>
</svg>
